<?xml version="1.0" encoding="UTF-8" standalone="no"?>
<!-- Created with Inkscape (http://www.inkscape.org/) -->

<svg
   xmlns:dc="http://purl.org/dc/elements/1.1/"
   xmlns:cc="http://creativecommons.org/ns#"
   xmlns:rdf="http://www.w3.org/1999/02/22-rdf-syntax-ns#"
   xmlns:svg="http://www.w3.org/2000/svg"
   xmlns="http://www.w3.org/2000/svg"
   xmlns:sodipodi="http://sodipodi.sourceforge.net/DTD/sodipodi-0.dtd"
   xmlns:inkscape="http://www.inkscape.org/namespaces/inkscape"
   width="1080"
   height="1080"
   id="svg2"
   sodipodi:version="0.32"
   inkscape:version="0.47 r22583"
   sodipodi:docname="TurtleHawaiianHearts.svg"
   inkscape:output_extension="org.inkscape.output.svg.inkscape"
   version="1.1">
  <defs
     id="defs4">
    <inkscape:perspective
       sodipodi:type="inkscape:persp3d"
       inkscape:vp_x="0 : 526.18109 : 1"
       inkscape:vp_y="0 : 1000 : 0"
       inkscape:vp_z="744.09448 : 526.18109 : 1"
       inkscape:persp3d-origin="372.04724 : 350.78739 : 1"
       id="perspective10" />
    <inkscape:perspective
       id="perspective2390"
       inkscape:persp3d-origin="372.04724 : 350.78739 : 1"
       inkscape:vp_z="744.09448 : 526.18109 : 1"
       inkscape:vp_y="0 : 1000 : 0"
       inkscape:vp_x="0 : 526.18109 : 1"
       sodipodi:type="inkscape:persp3d" />
  </defs>
  <sodipodi:namedview
     id="base"
     pagecolor="#ffffff"
     bordercolor="#666666"
     borderopacity="1.0"
     gridtolerance="10000"
     guidetolerance="10"
     objecttolerance="10"
     inkscape:pageopacity="0.0"
     inkscape:pageshadow="2"
     inkscape:zoom="0.35"
     inkscape:cx="375"
     inkscape:cy="748.57143"
     inkscape:document-units="px"
     inkscape:current-layer="layer1"
     showgrid="false"
     inkscape:window-width="1280"
     inkscape:window-height="1002"
     inkscape:window-x="1276"
     inkscape:window-y="92"
     inkscape:window-maximized="0" />
  <metadata
     id="metadata7">
    <rdf:RDF>
      <cc:Work
         rdf:about="">
        <dc:format>image/svg+xml</dc:format>
        <dc:type
           rdf:resource="http://purl.org/dc/dcmitype/StillImage" />
      </cc:Work>
    </rdf:RDF>
  </metadata>
  <g
     inkscape:label="Layer 1"
     inkscape:groupmode="layer"
     id="layer1"
     transform="translate(0,27.637817)">
    <path
       style="fill:#000000"
       d="m 369.01201,1008.3873 c -18.53019,-7.5121 -58.0064,-52.1146 -81.29179,-91.848 -16.36432,-27.9236 -19.13908,-39.9282 -19.28402,-83.4291 -0.15326,-45.99269 1.90545,-54.04671 21.70472,-84.91187 12.03074,-18.75482 21.87407,-39.22596 21.87407,-45.4915 0,-6.26554 -7.96054,-30.23013 -17.69007,-53.25456 -9.72952,-23.02449 -21.30891,-63.0637 -25.73193,-88.97604 -7.32354,-42.905 -8.7771,-45.74834 -16.27297,-31.83181 -11.89478,22.08339 -34.53174,114.24981 -34.53174,140.59606 0,18.45691 -2.568,22.48007 -14.34914,22.48007 C 83.287867,663.3705 84.214809,475.37109 126.46976,386.894 c 22.9586,-45.34027 66.07042,-87.69742 107.20745,-105.3308 15.91809,-6.82329 52.92809,-17.34534 82.24442,-23.38231 29.31632,-6.03699 66.93162,-17.72244 83.58956,-25.96766 l 30.28714,-14.99133 0.8578,-40.38287 c 0.47178,-22.21056 4.3101,-49.04689 8.52959,-59.63623 C 458.46307,68.823759 520.65601,5.2118693 548.67848,5.2118693 c 16.31966,0 71.17702,51.8168797 91.5536,86.4792047 13.0603,22.216616 19.3794,43.923476 21.76772,74.774506 3.22846,41.70343 4.45954,44.22533 30.28714,62.04508 17.45172,12.04078 48.59606,23.23009 88.53727,31.80903 66.81278,14.35065 118.70799,37.27798 140.8804,62.24101 51.39446,57.863 70.70044,112.29436 70.70044,199.33353 0,56.98382 -2.15005,68.63278 -18.81478,101.93747 -13.70178,27.38342 -26.13074,41.6869 -45.73662,52.63454 -43.40808,24.23855 -47.93124,21.68864 -52.73262,-29.72817 -4.55842,-48.81554 -29.32025,-132.08869 -37.7316,-126.89018 -2.86207,1.76884 -6.89133,19.56687 -8.95388,39.55119 -2.06256,19.98431 -13.26248,60.09112 -24.8887,89.1262 -23.11685,57.73161 -22.76073,69.58142 3.24266,107.89958 16.36167,24.11024 20.98032,51.17324 17.67356,103.55764 -2.67509,42.3787 -14.92846,66.9166 -53.83115,107.7993 -33.03817,34.7197 -41.676,40.2712 -62.66061,40.2712 -27.36814,0 -32.51057,-7.3805 -32.51057,-46.6595 0,-34.4035 -12.47332,-67.7586 -25.33876,-67.7586 -5.80854,0 -30.18263,10.7853 -54.16467,23.9675 -49.16593,27.025 -59.78621,25.8895 -106.72322,-11.4114 -44.44917,-35.3237 -62.801,-21.5326 -62.801,47.194 0,34.16361 -2.32277,42.07071 -14.95853,50.9211 -16.59321,11.6223 -22.46775,12.187 -42.46255,4.0812 z m 395.4278,-91.1958 c 39.54526,-47.788 45.93551,-93.4422 18.66833,-133.37339 -9.23227,-13.52011 -20.99863,-26.21253 -26.14737,-28.20535 -25.46199,-9.85497 -79.61698,57.34834 -71.79817,89.09744 2.52439,10.2507 6.94537,33.4662 9.8244,51.5901 8.5648,53.9171 35.43502,61.9996 69.45281,20.8912 z M 390.547,932.3351 c 2.91014,-4.6272 7.40392,-25.071 9.98616,-45.4307 2.58223,-20.3597 6.65318,-44.6285 9.04652,-53.9305 5.8533,-22.7498 -36.99981,-80.67906 -59.68216,-80.67906 -25.31219,0 -58.07398,43.53696 -58.07398,77.17416 0,22.9751 15.1635,58.4721 37.47193,87.7199 18.82608,24.6823 50.3513,32.4778 61.25153,15.1462 z M 569.78996,842.369 c 51.07248,-25.8044 66.47483,-61.96534 38.36601,-90.07416 -16.16829,-16.16829 -25.84906,-16.82875 -45.44869,-3.10061 -13.33159,9.3378 -16.37895,9.32017 -30.87626,-0.17882 -32.21543,-21.10833 -67.36163,11.19064 -54.90031,50.45273 3.61084,11.37676 57.96631,53.78386 68.93766,53.78386 1.30995,0 12.07467,-4.8974 23.92159,-10.883 z M 718.25992,705.38253 751.0158,662.00979 729.55439,651.84583 c -19.76228,-9.35927 -23.37608,-9.11563 -45.64528,3.07704 -46.94871,25.70503 -58.81575,59.50402 -30.74718,87.57259 16.75586,16.75586 30.20666,9.0875 65.09799,-37.11293 z m -267.14307,22.58009 c 10.23698,-15.62367 10.44352,-19.52115 1.83777,-34.68108 -14.18285,-24.98455 -43.24346,-44.18733 -66.87105,-44.18733 -36.68655,0 -37.97145,10.82038 -6.59624,55.54878 32.70283,46.62107 52.20229,52.96932 71.62952,23.31963 z M 586.712,698.58461 c 35.7148,-25.87167 51.14793,-49.94679 50.33784,-78.52521 -1.38809,-48.96906 -38.10163,-71.24172 -74.92165,-45.45196 -14.08803,9.86763 -16.36321,9.86763 -27.26685,0 -12.40736,-11.22852 -39.1532,-14.12246 -51.89427,-5.61504 -13.00907,8.68642 -22.8816,33.63764 -22.8816,57.82971 0,28.0486 23.89918,59.39809 59.7064,78.31907 32.26545,17.04957 34.6561,16.81535 66.92013,-6.55657 z M 406.13365,579.50452 c 49.18109,-53.81196 45.32143,-81.03643 -15.06572,-106.2678 -25.21852,-10.53697 -69.33823,-13.65782 -88.5982,-6.26708 -5.85541,2.24693 -10.64619,10.10974 -10.64619,17.47294 0,15.18771 15.95417,75.6717 31.02492,117.6189 9.76072,27.16753 10.775,27.89059 29.81463,21.25332 10.84058,-3.7791 34.90233,-23.49369 53.47056,-43.81028 z m 369.15286,26.40244 c 8.69383,-22.24944 21.41881,-69.53352 28.20339,-104.79941 4.4706,-23.23799 3.36228,-26.31898 -11.50042,-31.96977 -24.35937,-9.2614 -59.88323,-7.60474 -87.89405,4.09894 -34.49458,14.41276 -48.82612,29.10455 -48.82612,50.05355 0,31.29229 70.23416,101.02783 101.82324,101.10033 6.02896,0.0139 14.21624,-8.30379 18.19396,-18.48364 z M 194.48316,585.71553 c 12.63402,-60.3735 21.45782,-86.13282 51.29761,-149.75312 18.23047,-38.86851 40.59107,-85.058 49.69025,-102.6433 9.09918,-17.5853 16.54397,-33.48605 16.54397,-35.335 0,-7.32023 -28.25602,-2.67363 -63.16396,10.38708 -81.69857,30.56737 -130.99837,128.86689 -115.72167,230.73917 8.255,55.04822 52.54639,88.69259 61.3538,46.60517 z m 752.18015,-6.76836 c 40.64602,-69.79436 4.42509,-206.26683 -67.24581,-253.36742 -27.35381,-17.97631 -86.27307,-36.46641 -93.42178,-29.31771 -2.37372,2.3737 2.19487,13.4592 10.15232,24.63444 7.95749,11.17526 20.10904,36.33652 27.0034,55.91395 6.89444,19.57742 23.05089,58.31068 35.9032,86.07389 12.85239,27.76322 27.01095,67.13651 31.46356,87.49621 4.45255,20.35968 9.36075,41.01593 10.90708,45.90277 4.96521,15.69152 32.04804,5.31281 45.23803,-17.33613 z m -373.5742,-48.18779 c 37.59302,-19.40632 75.28275,-61.63082 79.78691,-89.38678 5.2246,-32.19554 -13.48498,-71.29455 -37.10841,-77.54875 -23.68071,-6.26935 -34.99,-3.42923 -53.04235,13.32068 l -15.14358,14.05097 -15.57735,-14.63417 c -10.1997,-9.58209 -24.17501,-14.63417 -40.48181,-14.63417 -20.87457,0 -27.0625,3.53952 -38.24129,21.87405 -29.37513,48.17871 -7.28796,103.39048 55.84552,139.59823 19.29932,11.06836 35.96754,20.1527 37.04046,20.18745 1.07289,0.0347 13.18775,-5.73764 26.9219,-12.82751 z M 372.28764,420.14185 c 18.03046,-8.44112 69.80322,-73.08831 77.00065,-96.14859 5.0855,-16.29364 -23.77624,-56.29277 -40.61855,-56.29277 -5.40997,0 -29.10061,18.92945 -52.64589,42.06547 -34.1624,33.56861 -44.94648,49.37062 -53.38881,78.23107 -5.81859,19.89108 -8.80633,39.03425 -6.63943,42.54039 4.58254,7.4147 52.0704,0.94399 76.29203,-10.39557 z m 428.19947,-12.78398 c -2.51526,-15.73248 -12.14946,-41.53336 -21.40938,-57.33527 -17.1601,-29.28357 -77.41799,-82.32211 -93.52732,-82.32211 -4.89118,0 -16.82876,9.431 -26.52791,20.95778 -20.74751,24.65705 -18.88619,35.82687 13.35131,80.11984 37.97928,52.18202 59.08389,64.56631 113.31742,66.49535 19.08722,0.67893 19.30247,0.27276 14.79588,-27.91559 z m -191.5675,-118.8493 42.98447,-39.76618 -20.19143,-8.58292 C 605.35994,228.9575 489.96064,228.91163 463.45071,240.09257 l -20.19143,8.51603 42.24458,39.83309 c 55.71584,52.53535 66.6946,52.54131 123.41575,0.0669 l 0,-2e-5 z m 15.5818,-91.95885 c 16.31381,-16.31381 12.64198,-47.60351 -10.73256,-91.4587 -21.09035,-39.569491 -48.61928,-66.226761 -68.39241,-66.226761 -16.81025,0 -47.74802,30.39112 -66.23585,65.065391 -41.64095,78.09879 -32.84991,91.66177 62.82794,96.932 38.25395,2.10715 70.09354,4.37868 70.75454,5.04785 0.66107,0.66917 5.96133,-3.54273 11.77834,-9.35978 z"
       id="path2396"
       sodipodi:nodetypes="cssssssssccsscccssssssssssssssssssssssssccssssccsssssccsssssccccssccsssccssssssccsssssccsssssccsssssccsssssssccsscccssssccsssssccsssssccccccccccsssssc" />
  </g>
</svg>
